# xmcd
#
# Track frame offsets:
#	150
#	21976
#	27325
#	48651
#	82475
#	107951
#	123524
#	167291
#	184476
#	234172
#	282981
#
# Disc length: 4202 seconds
#
# Revision: 0
# Processed by: cddbd v1.5.2PL0 Copyright (c) Steve Scherf et al.
# Submitted via: EZCDAudioConverter 7.0.0.1
#
DISCID=9b10680b
DTITLE=Jan Kyks Skrzek In Memoriam
DYEAR=1900
DGENRE=
TTITLE0=Do Przyjaciela
TTITLE1=Wstep
TTITLE2=Swing Jasia
TTITLE3=Nikt Nie Zna Swej Godziny
TTITLE4=Piata Strona Swiata
TTITLE5=Cisza
TTITLE6=Zaklety W Klawisze
TTITLE7=Ja Wiem I Ty To Wiesz
TTITLE8=Modlitwa Bluesmana w Pociagu
TTITLE9=O Moj Slasku
TTITLE10=Bracie Moj
EXTD=
EXTT0=
EXTT1=
EXTT2=
EXTT3=
EXTT4=
EXTT5=
EXTT6=
EXTT7=
EXTT8=
EXTT9=
EXTT10=
PLAYORDER=
